<?xml version="1.0" encoding="UTF-8"?>
<svg version="1.1" viewBox="0 0 900 900" width="1280" height="1280" xmlns="http://www.w3.org/2000/svg">
<path transform="translate(0)" d="m0 0h900v900h-900z" fill="#FDFDFD"/>
<path transform="translate(146,265)" d="m0 0h167l9 16 13 24 12 22 13 23h3l20-20 8-7 52-52 7-6h174l-5 6-8 7-79 79-7 8-8 8-8 7-84 84 1 5 13 24 12 21 14 25 13 23 12 21 25 45 13 23 3 5v2l-62 1h-109l-4-4-26-48-15-28v-2l-3 1-7 8-72 72-2 1h-178l3-5 12-11 13-13 6-7h2l2-4 6-5 148-148 3-2-1-5-14-27-12-22-18-35-12-22-17-33-12-22-9-17-7-14z" fill="#070274"/>
<path transform="translate(503,413)" d="m0 0h178l-1 8-11 48-10 43-2 1-74 1-6 24-5 21h191l-1 9-21 88-2 3h-190l-4-5-10-18-26-46-12-22-10-17-11-20 1-7 19-84 6-25z" fill="#161618"/>
<path transform="translate(640,265)" d="m0 0h193l-4 18-11 47-8 33-1 1-8 1h-205l-54-1 3-5 8-7 67-67z" fill="#161618"/>
</svg>
